<svg xmlns="http://www.w3.org/2000/svg" viewBox="0 0 800 480" font-family="'Segoe UI', system-ui, sans-serif">
  <!-- Background -->
  <rect width="800" height="480" fill="#e8eaf6"/>

  <!-- Browser window -->
  <rect x="30" y="20" width="740" height="440" rx="12" fill="#ffffff" stroke="#ccc" stroke-width="1.5"/>

  <!-- Browser chrome -->
  <rect x="30" y="20" width="740" height="44" rx="12" fill="#f5f5f5"/>
  <rect x="30" y="52" width="740" height="12" fill="#f5f5f5"/>
  <circle cx="62" cy="42" r="7" fill="#ff5f57"/>
  <circle cx="84" cy="42" r="7" fill="#ffbd2e"/>
  <circle cx="106" cy="42" r="7" fill="#28ca41"/>
  <rect x="130" y="30" width="500" height="24" rx="12" fill="#ffffff" stroke="#ddd" stroke-width="1"/>
  <text x="380" y="47" text-anchor="middle" font-size="12" fill="#888">localhost:5500/dierentuin.html</text>

  <!-- Page content -->
  <rect x="50" y="76" width="700" height="370" rx="8" fill="white"/>

  <!-- H1 -->
  <text x="400" y="116" text-anchor="middle" font-size="22" font-weight="700" fill="#2d2d4e">Mijn Dierentuin</text>
  <line x1="60" y1="128" x2="740" y2="128" stroke="#e0e0e0" stroke-width="1"/>

  <!-- Dier cards -->
  <!-- Card 1: Mies (Kat) -->
  <rect x="60" y="142" width="680" height="62" rx="8" fill="#f8fffe" stroke="#e0e0e0" stroke-width="1"/>
  <rect x="60" y="142" width="6" height="62" rx="3" fill="#43e97b"/>
  <text x="84" y="166" font-size="18">&#128049;</text>
  <text x="114" y="166" font-size="14" font-weight="700" fill="#2d2d4e">Mies</text>
  <rect x="170" y="153" width="50" height="18" rx="9" fill="#43e97b" fill-opacity="0.2"/>
  <text x="195" y="166" text-anchor="middle" font-size="11" fill="#43e97b" font-weight="600">Kat</text>
  <text x="240" y="166" font-size="12" fill="#888">3 jaar</text>
  <text x="114" y="188" font-size="13" fill="#555" font-style="italic">"Miauw!"</text>

  <!-- Card 2: Rex (Hond) -->
  <rect x="60" y="216" width="680" height="62" rx="8" fill="#fffcf5" stroke="#e0e0e0" stroke-width="1"/>
  <rect x="60" y="216" width="6" height="62" rx="3" fill="#f9a825"/>
  <text x="84" y="240" font-size="18">&#128054;</text>
  <text x="114" y="240" font-size="14" font-weight="700" fill="#2d2d4e">Rex</text>
  <rect x="165" y="227" width="56" height="18" rx="9" fill="#f9a825" fill-opacity="0.2"/>
  <text x="193" y="240" text-anchor="middle" font-size="11" fill="#f9a825" font-weight="600">Hond</text>
  <text x="242" y="240" font-size="12" fill="#888">5 jaar</text>
  <text x="114" y="262" font-size="13" fill="#555" font-style="italic">"Woef!"</text>

  <!-- Card 3: Luna (Kat) -->
  <rect x="60" y="290" width="680" height="62" rx="8" fill="#f8fffe" stroke="#e0e0e0" stroke-width="1"/>
  <rect x="60" y="290" width="6" height="62" rx="3" fill="#43e97b"/>
  <text x="84" y="314" font-size="18">&#128049;</text>
  <text x="114" y="314" font-size="14" font-weight="700" fill="#2d2d4e">Luna</text>
  <rect x="172" y="301" width="50" height="18" rx="9" fill="#43e97b" fill-opacity="0.2"/>
  <text x="197" y="314" text-anchor="middle" font-size="11" fill="#43e97b" font-weight="600">Kat</text>
  <text x="241" y="314" font-size="12" fill="#888">2 jaar</text>
  <text x="114" y="336" font-size="13" fill="#555" font-style="italic">"Miauw!"</text>

  <!-- Card 4: Buddy (Hond) -->
  <rect x="60" y="364" width="680" height="62" rx="8" fill="#fffcf5" stroke="#e0e0e0" stroke-width="1"/>
  <rect x="60" y="364" width="6" height="62" rx="3" fill="#f9a825"/>
  <text x="84" y="388" font-size="18">&#128054;</text>
  <text x="114" y="388" font-size="14" font-weight="700" fill="#2d2d4e">Buddy</text>
  <rect x="174" y="375" width="56" height="18" rx="9" fill="#f9a825" fill-opacity="0.2"/>
  <text x="202" y="388" text-anchor="middle" font-size="11" fill="#f9a825" font-weight="600">Hond</text>
  <text x="252" y="388" font-size="12" fill="#888">7 jaar</text>
  <text x="114" y="410" font-size="13" fill="#555" font-style="italic">"Woef!"</text>

  <!-- Legend -->
  <rect x="60" y="434" width="20" height="8" rx="2" fill="#43e97b"/>
  <text x="86" y="441" font-size="11" fill="#888">= Kat</text>
  <rect x="130" y="434" width="20" height="8" rx="2" fill="#f9a825"/>
  <text x="156" y="441" font-size="11" fill="#888">= Hond</text>
  <text x="400" y="441" text-anchor="middle" font-size="11" fill="#aaa">Polymorfisme: elk dier reageert op geluid() op zijn eigen manier</text>
</svg>
