<svg xmlns="http://www.w3.org/2000/svg" viewBox="0 0 800 520" font-family="'Segoe UI', system-ui, sans-serif">
  <!-- Browser chrome -->
  <rect x="0" y="0" width="800" height="40" rx="8" fill="#2d2d2d"/>
  <circle cx="20" cy="20" r="6" fill="#ff5f57"/>
  <circle cx="40" cy="20" r="6" fill="#febc2e"/>
  <circle cx="60" cy="20" r="6" fill="#28c840"/>
  <rect x="100" y="8" width="500" height="24" rx="12" fill="#1a1a1a"/>
  <text x="350" y="24" text-anchor="middle" fill="#888" font-size="12">localhost/receptenapp/</text>

  <!-- Page -->
  <rect x="0" y="40" width="800" height="480" fill="#f8f9ff"/>

  <!-- Header -->
  <rect x="0" y="40" width="800" height="55" fill="#1a1a2e"/>
  <text x="30" y="73" fill="white" font-size="18" font-weight="bold">🍽 Mijn Recepten</text>
  <text x="640" y="65" fill="#aaa" font-size="13">Overzicht</text>
  <text x="710" y="65" fill="#6c63ff" font-size="13">Toevoegen</text>

  <!-- Search + filter row -->
  <rect x="20" y="108" width="500" height="36" rx="8" fill="white" stroke="#6c63ff" stroke-width="1.5"/>
  <text x="36" y="130" fill="#888" font-size="13">🔍</text>
  <text x="58" y="130" fill="#999" font-size="13">Zoek een recept…</text>
  <rect x="535" y="108" width="245" height="36" rx="8" fill="white" stroke="#e0e0e0" stroke-width="1"/>
  <text x="548" y="130" fill="#2d2d4e" font-size="12" font-weight="bold">Filter:</text>
  <rect x="598" y="118" width="12" height="12" rx="3" fill="#3498db"/>
  <text x="615" y="129" fill="#3498db" font-size="11">Hfdg.</text>
  <rect x="655" y="118" width="12" height="12" rx="3" fill="#9b59b6"/>
  <text x="672" y="129" fill="#9b59b6" font-size="11">Dessert</text>
  <rect x="718" y="118" width="12" height="12" rx="3" fill="#e74c3c"/>
  <text x="735" y="129" fill="#e74c3c" font-size="11">+</text>

  <!-- Cards row 1 -->
  <rect x="20" y="158" width="235" height="120" rx="10" fill="white" stroke="#e0e0e0" stroke-width="1"/>
  <rect x="20" y="158" width="4" height="120" rx="2" fill="#e74c3c"/>
  <text x="36" y="180" fill="#2d2d4e" font-size="12" font-weight="bold">Tomatensoep</text>
  <text x="36" y="196" fill="#888" font-size="10">Romige soep met verse tomaten.</text>
  <rect x="36" y="210" width="66" height="15" rx="7" fill="#e74c3c" fill-opacity="0.15"/>
  <text x="69" y="221" text-anchor="middle" fill="#e74c3c" font-size="9">voorgerecht</text>
  <text x="126" y="221" fill="#888" font-size="10">⏱ 15 min</text>
  <text x="245" y="173" text-anchor="end" fill="#999" font-size="16">🗑</text>

  <rect x="270" y="158" width="235" height="120" rx="10" fill="white" stroke="#e0e0e0" stroke-width="1"/>
  <rect x="270" y="158" width="4" height="120" rx="2" fill="#3498db"/>
  <text x="286" y="180" fill="#2d2d4e" font-size="12" font-weight="bold">Spaghetti carbonara</text>
  <text x="286" y="196" fill="#888" font-size="10">Klassieke pasta met ei en spek.</text>
  <rect x="286" y="210" width="72" height="15" rx="7" fill="#3498db" fill-opacity="0.15"/>
  <text x="322" y="221" text-anchor="middle" fill="#3498db" font-size="9">hoofdgerecht</text>
  <text x="376" y="221" fill="#888" font-size="10">⏱ 25 min</text>
  <text x="495" y="173" text-anchor="end" fill="#999" font-size="16">🗑</text>

  <rect x="520" y="158" width="260" height="120" rx="10" fill="white" stroke="#e0e0e0" stroke-width="1"/>
  <rect x="520" y="158" width="4" height="120" rx="2" fill="#9b59b6"/>
  <text x="536" y="180" fill="#2d2d4e" font-size="12" font-weight="bold">Tiramisu</text>
  <text x="536" y="196" fill="#888" font-size="10">Italiaans dessert met mascarpone.</text>
  <rect x="536" y="210" width="48" height="15" rx="7" fill="#9b59b6" fill-opacity="0.15"/>
  <text x="560" y="221" text-anchor="middle" fill="#9b59b6" font-size="9">dessert</text>
  <text x="610" y="221" fill="#888" font-size="10">⏱ 40 min</text>
  <text x="770" y="173" text-anchor="end" fill="#999" font-size="16">🗑</text>

  <!-- Card row 2 -->
  <rect x="20" y="290" width="235" height="120" rx="10" fill="white" stroke="#e0e0e0" stroke-width="1"/>
  <rect x="20" y="290" width="4" height="120" rx="2" fill="#f39c12"/>
  <text x="36" y="312" fill="#2d2d4e" font-size="12" font-weight="bold">Nachos met guac</text>
  <text x="36" y="328" fill="#888" font-size="10">Krokante chips met avocadodip.</text>
  <rect x="36" y="342" width="38" height="15" rx="7" fill="#f39c12" fill-opacity="0.15"/>
  <text x="55" y="353" text-anchor="middle" fill="#f39c12" font-size="9">snack</text>
  <text x="100" y="353" fill="#888" font-size="10">⏱ 10 min</text>
  <text x="245" y="305" text-anchor="end" fill="#999" font-size="16">🗑</text>

  <!-- Stats bar -->
  <rect x="20" y="425" width="760" height="50" rx="8" fill="white" stroke="#e0e0e0" stroke-width="1"/>
  <text x="40" y="445" fill="#888" font-size="12" font-weight="bold">📊 Statistieken:</text>
  <text x="40" y="462" fill="#2d2d4e" font-size="11">🍽 Totaal: 4 recepten</text>
  <text x="220" y="462" fill="#2d2d4e" font-size="11">⚡ Snelste: Nachos (10 min)</text>
  <text x="460" y="462" fill="#2d2d4e" font-size="11">⏱ Gemiddeld: 23 min</text>
  <text x="650" y="462" fill="#2d2d4e" font-size="11">🏆 Hfdg.: 1×</text>

  <!-- Live footer -->
  <rect x="0" y="485" width="800" height="35" fill="#1a1a2e"/>
  <text x="30" y="506" fill="#6c63ff" font-size="11" font-weight="bold">🍽 Recepten App</text>
  <text x="400" y="506" text-anchor="middle" fill="#555" font-size="10">Vanilla JS · ES Modules · localStorage</text>
  <text x="775" y="506" text-anchor="end" fill="#43e97b" font-size="11" font-weight="bold">donderdag 2/4/2026 — 14:35:22</text>
</svg>
