<svg viewBox="0 0 800 480" xmlns="http://www.w3.org/2000/svg" font-family="Arial, sans-serif">
  <rect width="800" height="480" fill="#1a1c28"/>
  <text x="400" y="28" text-anchor="middle" font-size="17" font-weight="bold" fill="#f0f0f0">Semantische paginastructuur</text>

  <!-- HEADER -->
  <rect x="60" y="44" width="680" height="56" rx="4" fill="#3b5bdb" stroke="#7c9eff" stroke-width="1.5"/>
  <text x="72" y="61" font-size="11" fill="#aac4ff">&lt;header&gt;</text>
  <text x="400" y="78" text-anchor="middle" font-size="14" font-weight="bold" fill="#ffffff">Logo + sitetitel + navigatie</text>
  <text x="728" y="95" text-anchor="end" font-size="11" fill="#aac4ff">&lt;/header&gt;</text>

  <!-- NAV -->
  <rect x="60" y="108" width="680" height="36" rx="4" fill="#364fc7" stroke="#748ffc" stroke-width="1.5"/>
  <text x="72" y="122" font-size="11" fill="#bac8ff">&lt;nav&gt;</text>
  <text x="400" y="132" text-anchor="middle" font-size="13" fill="#ffffff">Home  |  Artikels  |  Over ons  |  Contact</text>
  <text x="728" y="140" text-anchor="end" font-size="11" fill="#bac8ff">&lt;/nav&gt;</text>

  <!-- MAIN container -->
  <rect x="60" y="152" width="500" height="256" rx="4" fill="#1e3a5f" stroke="#4dabf7" stroke-width="1.5"/>
  <text x="72" y="168" font-size="11" fill="#74c0fc">&lt;main&gt;</text>

  <!-- ARTICLE 1 -->
  <rect x="76" y="174" width="468" height="72" rx="3" fill="#1c4070" stroke="#339af0" stroke-width="1"/>
  <text x="88" y="189" font-size="11" fill="#74c0fc">&lt;article&gt;</text>
  <text x="104" y="207" font-size="13" font-weight="bold" fill="#e7f5ff">HTML5 voor beginners</text>
  <text x="104" y="224" font-size="11" fill="#a5d8ff">Door Jan Peeters — 10 maart 2025</text>
  <text x="536" y="240" text-anchor="end" font-size="11" fill="#74c0fc">&lt;/article&gt;</text>

  <!-- ARTICLE 2 -->
  <rect x="76" y="254" width="468" height="72" rx="3" fill="#1c4070" stroke="#339af0" stroke-width="1"/>
  <text x="88" y="269" font-size="11" fill="#74c0fc">&lt;article&gt;</text>
  <text x="104" y="287" font-size="13" font-weight="bold" fill="#e7f5ff">CSS Grid vs. Flexbox</text>
  <text x="104" y="304" font-size="11" fill="#a5d8ff">Door An De Smedt — 5 maart 2025</text>
  <text x="536" y="320" text-anchor="end" font-size="11" fill="#74c0fc">&lt;/article&gt;</text>

  <text x="548" y="402" text-anchor="end" font-size="11" fill="#74c0fc">&lt;/main&gt;</text>

  <!-- ASIDE -->
  <rect x="568" y="152" width="172" height="256" rx="4" fill="#3d2b00" stroke="#fd7e14" stroke-width="1.5"/>
  <text x="580" y="168" font-size="11" fill="#ffa94d">&lt;aside&gt;</text>
  <text x="654" y="194" text-anchor="middle" font-size="12" font-weight="bold" fill="#ffe8cc">Populaire tags</text>
  <text x="588" y="216" font-size="12" fill="#ffd8a8">• HTML</text>
  <text x="588" y="236" font-size="12" fill="#ffd8a8">• CSS</text>
  <text x="588" y="256" font-size="12" fill="#ffd8a8">• JavaScript</text>
  <text x="588" y="276" font-size="12" fill="#ffd8a8">• Responsive</text>
  <text x="730" y="402" text-anchor="end" font-size="11" fill="#ffa94d">&lt;/aside&gt;</text>

  <!-- FOOTER -->
  <rect x="60" y="416" width="680" height="48" rx="4" fill="#862e2e" stroke="#ff6b6b" stroke-width="1.5"/>
  <text x="72" y="432" font-size="11" fill="#ffa8a8">&lt;footer&gt;</text>
  <text x="400" y="447" text-anchor="middle" font-size="13" fill="#ffe3e3">© 2025 TechBlog — Privacybeleid | Contact</text>
  <text x="728" y="460" text-anchor="end" font-size="11" fill="#ffa8a8">&lt;/footer&gt;</text>

  <!-- Legend -->
  <rect x="60" y="468" width="10" height="10" fill="#3b5bdb"/>
  <text x="74" y="478" font-size="10" fill="#aaaacc">header</text>
  <rect x="128" y="468" width="10" height="10" fill="#364fc7"/>
  <text x="142" y="478" font-size="10" fill="#aaaacc">nav</text>
  <rect x="186" y="468" width="10" height="10" fill="#1e3a5f" stroke="#4dabf7" stroke-width="1"/>
  <text x="200" y="478" font-size="10" fill="#aaaacc">main</text>
  <rect x="248" y="468" width="10" height="10" fill="#1c4070" stroke="#339af0" stroke-width="1"/>
  <text x="262" y="478" font-size="10" fill="#aaaacc">article</text>
  <rect x="320" y="468" width="10" height="10" fill="#3d2b00" stroke="#fd7e14" stroke-width="1"/>
  <text x="334" y="478" font-size="10" fill="#aaaacc">aside</text>
  <rect x="388" y="468" width="10" height="10" fill="#862e2e"/>
  <text x="402" y="478" font-size="10" fill="#aaaacc">footer</text>
</svg>
