<svg xmlns="http://www.w3.org/2000/svg" width="900" height="560" font-family="sans-serif">
  <!-- Browser chrome -->
  <rect width="900" height="560" fill="#ffffff"/>
  <rect width="900" height="44" fill="#1e1e2e"/>
  <circle cx="20" cy="22" r="6" fill="#ff5f57"/>
  <circle cx="36" cy="22" r="6" fill="#febc2e"/>
  <circle cx="52" cy="22" r="6" fill="#28c840"/>
  <rect x="200" y="10" width="500" height="24" rx="12" fill="#2a2a3e"/>
  <text x="450" y="26" text-anchor="middle" fill="#888" font-size="12">factuur.html</text>

  <!-- caption -->
  <text x="40" y="82" font-size="15" font-weight="bold" fill="#000">Factuur — TechSolutions NV — 25 maart 2025</text>

  <!-- table -->
  <rect x="40" y="92" width="700" height="310" fill="none" stroke="#999" stroke-width="1"/>

  <!-- column dividers -->
  <line x1="280" y1="92" x2="280" y2="402" stroke="#999" stroke-width="1"/>
  <line x1="420" y1="92" x2="420" y2="402" stroke="#999" stroke-width="1"/>
  <line x1="560" y1="92" x2="560" y2="402" stroke="#999" stroke-width="1"/>

  <!-- thead -->
  <rect x="40" y="92" width="700" height="36" fill="#e8e8e8"/>
  <text x="160" y="116" text-anchor="middle" font-size="14" font-weight="bold" fill="#000">Product / Dienst</text>
  <text x="350" y="116" text-anchor="middle" font-size="14" font-weight="bold" fill="#000">Aantal</text>
  <text x="490" y="116" text-anchor="middle" font-size="14" font-weight="bold" fill="#000">Eenheidsprijs</text>
  <text x="630" y="116" text-anchor="middle" font-size="14" font-weight="bold" fill="#000">Totaal</text>

  <!-- rows -->
  <line x1="40" y1="128" x2="740" y2="128" stroke="#999" stroke-width="1"/>
  <text x="50" y="150" font-size="14" fill="#000">Website ontwikkeling</text>
  <text x="350" y="150" text-anchor="middle" font-size="14" fill="#000">1</text>
  <text x="490" y="150" text-anchor="middle" font-size="14" fill="#000">€ 1.200,00</text>
  <text x="630" y="150" text-anchor="middle" font-size="14" fill="#000">€ 1.200,00</text>

  <line x1="40" y1="164" x2="740" y2="164" stroke="#999" stroke-width="1"/>
  <text x="50" y="186" font-size="14" fill="#000">Hosting (1 jaar)</text>
  <text x="350" y="186" text-anchor="middle" font-size="14" fill="#000">1</text>
  <text x="490" y="186" text-anchor="middle" font-size="14" fill="#000">€ 120,00</text>
  <text x="630" y="186" text-anchor="middle" font-size="14" fill="#000">€ 120,00</text>

  <line x1="40" y1="200" x2="740" y2="200" stroke="#999" stroke-width="1"/>
  <text x="50" y="222" font-size="14" fill="#000">Logo ontwerp</text>
  <text x="350" y="222" text-anchor="middle" font-size="14" fill="#000">1</text>
  <text x="490" y="222" text-anchor="middle" font-size="14" fill="#000">€ 350,00</text>
  <text x="630" y="222" text-anchor="middle" font-size="14" fill="#000">€ 350,00</text>

  <line x1="40" y1="236" x2="740" y2="236" stroke="#999" stroke-width="1"/>
  <text x="50" y="258" font-size="14" fill="#000">Technische ondersteuning</text>
  <text x="350" y="258" text-anchor="middle" font-size="14" fill="#000">5u</text>
  <text x="490" y="258" text-anchor="middle" font-size="14" fill="#000">€ 75,00</text>
  <text x="630" y="258" text-anchor="middle" font-size="14" fill="#000">€ 375,00</text>

  <!-- tfoot: colspan on "Totaal" label -->
  <line x1="40" y1="272" x2="740" y2="272" stroke="#999" stroke-width="1"/>
  <rect x="40" y="272" width="700" height="36" fill="#f0f0f0"/>
  <!-- colspan="3" for label cell -->
  <text x="300" y="296" text-anchor="middle" font-size="14" font-weight="bold" fill="#000">Totaal (excl. BTW)</text>
  <!-- single divider before total amount -->
  <line x1="560" y1="272" x2="560" y2="308" stroke="#999" stroke-width="1"/>
  <text x="630" y="296" text-anchor="middle" font-size="14" font-weight="bold" fill="#000">€ 2.045,00</text>
</svg>
