<svg xmlns="http://www.w3.org/2000/svg" viewBox="0 0 1200 800" font-family="'Segoe UI', Arial, sans-serif">
  <rect width="1200" height="800" fill="#0f1117"/>
  <text x="600" y="45" text-anchor="middle" font-size="22" font-weight="bold" fill="#ffffff">Huistaak H15 — Responsieve portfoliopagina</text>
  <text x="600" y="72" text-anchor="middle" font-size="14" fill="#94a3b8">Mobile (375px) · Tablet (768px) · Desktop (1200px)</text>

  <!-- Mobile mockup -->
  <rect x="40" y="100" width="240" height="420" rx="16" fill="#1e1e2e" stroke="#7c3aed" stroke-width="2"/>
  <rect x="50" y="110" width="220" height="12" rx="4" fill="#2d2d3d"/>
  <text x="160" y="121" text-anchor="middle" font-size="9" fill="#94a3b8">portfolio.html</text>
  <!-- nav -->
  <rect x="50" y="128" width="220" height="28" fill="#252535"/>
  <text x="160" y="147" text-anchor="middle" font-size="11" fill="#00d4ff">Portfolio</text>
  <!-- card 1 col -->
  <rect x="60" y="164" width="200" height="70" rx="6" fill="#1a1a2e" stroke="#333" stroke-width="1"/>
  <rect x="60" y="164" width="200" height="30" rx="6" fill="#7c3aed"/>
  <text x="160" y="184" text-anchor="middle" font-size="11" fill="#ffffff">Project 1</text>
  <rect x="68" y="200" width="120" height="6" rx="3" fill="#333"/>
  <rect x="68" y="212" width="80" height="6" rx="3" fill="#333"/>
  <rect x="60" y="244" width="200" height="70" rx="6" fill="#1a1a2e" stroke="#333" stroke-width="1"/>
  <rect x="60" y="244" width="200" height="30" rx="6" fill="#7c3aed"/>
  <text x="160" y="264" text-anchor="middle" font-size="11" fill="#ffffff">Project 2</text>
  <rect x="68" y="280" width="120" height="6" rx="3" fill="#333"/>
  <rect x="68" y="292" width="80" height="6" rx="3" fill="#333"/>
  <rect x="60" y="324" width="200" height="70" rx="6" fill="#1a1a2e" stroke="#333" stroke-width="1"/>
  <rect x="60" y="324" width="200" height="30" rx="6" fill="#7c3aed"/>
  <text x="160" y="344" text-anchor="middle" font-size="11" fill="#ffffff">Project 3</text>
  <rect x="68" y="360" width="120" height="6" rx="3" fill="#333"/>
  <rect x="68" y="372" width="80" height="6" rx="3" fill="#333"/>
  <text x="160" y="430" text-anchor="middle" font-size="10" fill="#39ff14">① 1 kolom</text>
  <text x="160" y="448" text-anchor="middle" font-size="10" fill="#94a3b8">flex-direction: column</text>
  <rect x="50" y="520" width="90" height="3" rx="1" fill="#7c3aed" opacity="0.5"/>

  <!-- Tablet mockup -->
  <rect x="340" y="100" width="480" height="420" rx="12" fill="#1e1e2e" stroke="#00d4ff" stroke-width="2"/>
  <rect x="352" y="110" width="456" height="12" rx="4" fill="#2d2d3d"/>
  <text x="580" y="121" text-anchor="middle" font-size="9" fill="#94a3b8">portfolio.html</text>
  <!-- nav horizontal -->
  <rect x="352" y="128" width="456" height="28" fill="#252535"/>
  <text x="440" y="147" text-anchor="middle" font-size="11" fill="#00d4ff">Portfolio</text>
  <text x="530" y="147" text-anchor="middle" font-size="11" fill="#94a3b8">Over mij</text>
  <text x="620" y="147" text-anchor="middle" font-size="11" fill="#94a3b8">Contact</text>
  <!-- 2 col grid -->
  <rect x="360" y="170" width="210" height="80" rx="6" fill="#1a1a2e" stroke="#333" stroke-width="1"/>
  <rect x="360" y="170" width="210" height="30" rx="6" fill="#7c3aed"/>
  <text x="465" y="190" text-anchor="middle" font-size="11" fill="#ffffff">Project 1</text>
  <rect x="368" y="206" width="140" height="6" rx="3" fill="#333"/>
  <rect x="368" y="218" width="100" height="6" rx="3" fill="#333"/>
  <rect x="582" y="170" width="210" height="80" rx="6" fill="#1a1a2e" stroke="#333" stroke-width="1"/>
  <rect x="582" y="170" width="210" height="30" rx="6" fill="#7c3aed"/>
  <text x="687" y="190" text-anchor="middle" font-size="11" fill="#ffffff">Project 2</text>
  <rect x="590" y="206" width="140" height="6" rx="3" fill="#333"/>
  <rect x="590" y="218" width="100" height="6" rx="3" fill="#333"/>
  <rect x="360" y="262" width="210" height="80" rx="6" fill="#1a1a2e" stroke="#333" stroke-width="1"/>
  <rect x="360" y="262" width="210" height="30" rx="6" fill="#7c3aed"/>
  <text x="465" y="282" text-anchor="middle" font-size="11" fill="#ffffff">Project 3</text>
  <rect x="368" y="298" width="140" height="6" rx="3" fill="#333"/>
  <rect x="368" y="310" width="100" height="6" rx="3" fill="#333"/>
  <text x="580" y="400" text-anchor="middle" font-size="10" fill="#39ff14">② 2 kolommen (@media 600px)</text>
  <text x="580" y="418" text-anchor="middle" font-size="10" fill="#94a3b8">flex-wrap: wrap; flex: 1 1 calc(50% - ...)</text>

  <!-- Desktop mockup -->
  <rect x="880" y="100" width="280" height="420" rx="8" fill="#1e1e2e" stroke="#39ff14" stroke-width="2"/>
  <rect x="890" y="110" width="260" height="12" rx="4" fill="#2d2d3d"/>
  <text x="1020" y="121" text-anchor="middle" font-size="9" fill="#94a3b8">portfolio.html</text>
  <rect x="890" y="128" width="260" height="28" fill="#252535"/>
  <text x="940" y="147" text-anchor="middle" font-size="10" fill="#00d4ff">Portfolio</text>
  <text x="985" y="147" text-anchor="middle" font-size="10" fill="#94a3b8">Over mij</text>
  <text x="1030" y="147" text-anchor="middle" font-size="10" fill="#94a3b8">Contact</text>
  <text x="1110" y="147" text-anchor="middle" font-size="10" fill="#ff6b35">Neem contact</text>
  <!-- 3 col grid -->
  <rect x="892" y="170" width="77" height="70" rx="4" fill="#1a1a2e" stroke="#333" stroke-width="1"/>
  <rect x="892" y="170" width="77" height="24" rx="4" fill="#7c3aed"/>
  <text x="930" y="186" text-anchor="middle" font-size="9" fill="#ffffff">Project 1</text>
  <rect x="977" y="170" width="77" height="70" rx="4" fill="#1a1a2e" stroke="#333" stroke-width="1"/>
  <rect x="977" y="170" width="77" height="24" rx="4" fill="#7c3aed"/>
  <text x="1015" y="186" text-anchor="middle" font-size="9" fill="#ffffff">Project 2</text>
  <rect x="1062" y="170" width="77" height="70" rx="4" fill="#1a1a2e" stroke="#333" stroke-width="1"/>
  <rect x="1062" y="170" width="77" height="24" rx="4" fill="#7c3aed"/>
  <text x="1100" y="186" text-anchor="middle" font-size="9" fill="#ffffff">Project 3</text>
  <text x="1020" y="300" text-anchor="middle" font-size="10" fill="#39ff14">③ 3 kolommen (@media 1024px)</text>
  <text x="1020" y="318" text-anchor="middle" font-size="10" fill="#94a3b8">flex: 1 1 calc(33.3% - ...)</text>

  <!-- Summary -->
  <rect x="40" y="560" width="1120" height="120" rx="8" fill="#1a1a2e" stroke="#7c3aed" stroke-width="1"/>
  <text x="600" y="590" text-anchor="middle" font-size="15" font-weight="bold" fill="#7c3aed">Vereisten</text>
  <text x="140" y="620" text-anchor="middle" font-size="13" fill="#39ff14">✓</text><text x="160" y="620" font-size="13" fill="#ffffff">meta viewport aanwezig</text>
  <text x="440" y="620" text-anchor="middle" font-size="13" fill="#39ff14">✓</text><text x="460" y="620" font-size="13" fill="#ffffff">afbeeldingen: max-width: 100%</text>
  <text x="760" y="620" text-anchor="middle" font-size="13" fill="#39ff14">✓</text><text x="780" y="620" font-size="13" fill="#ffffff">rem/% ipv vaste px</text>
  <text x="140" y="650" text-anchor="middle" font-size="13" fill="#39ff14">✓</text><text x="160" y="650" font-size="13" fill="#ffffff">@media 600px → 2 kolommen</text>
  <text x="440" y="650" text-anchor="middle" font-size="13" fill="#39ff14">✓</text><text x="460" y="650" font-size="13" fill="#ffffff">@media 1024px → 3 kolommen</text>
  <text x="760" y="650" text-anchor="middle" font-size="13" fill="#39ff14">✓</text><text x="780" y="650" font-size="13" fill="#ffffff">navigatie + portfolio-grid aanwezig</text>
</svg>
