<?xml version="1.0" encoding="UTF-8"?>
<svg xmlns="http://www.w3.org/2000/svg" viewBox="0 0 800 450" width="800" height="450">
  <defs>
    <linearGradient id="bg" x1="0" y1="0" x2="1" y2="1">
      <stop offset="0%" stop-color="#0D0E14"/>
      <stop offset="100%" stop-color="#13141D"/>
    </linearGradient>
  </defs>
  <rect width="800" height="450" fill="url(#bg)"/>

  <!-- Titel -->
  <text x="400" y="36" text-anchor="middle" font-family="system-ui, sans-serif" font-size="18" font-weight="700" fill="#E8E9F3">CSV-BESTAND — STRUCTUUR EN OPBOUW</text>
  <text x="400" y="54" text-anchor="middle" font-family="system-ui, sans-serif" font-size="11" fill="#6B6E8E" letter-spacing="0.1em">COMMA-SEPARATED VALUES — DATAOPSLAG IN PLATTE TEKST</text>
  <line x1="80" y1="64" x2="720" y2="64" stroke="#1F2035" stroke-width="1"/>

  <!-- RAW tekstweergave links -->
  <rect x="40" y="80" width="340" height="200" rx="8" fill="#09090F" stroke="#2A2C45" stroke-width="1"/>
  <rect x="40" y="80" width="340" height="28" rx="8" fill="#13141D"/>
  <rect x="40" y="96" width="340" height="12" rx="0" fill="#13141D"/>
  <text x="52" y="99" font-family="monospace" font-size="10" fill="#6B6E8E">sensor_data.csv</text>
  <circle cx="350" cy="94" r="5" fill="#EF4444"/>
  <circle cx="365" cy="94" r="5" fill="#F59E0B"/>
  <circle cx="380" cy="94" r="5" fill="#22C55E"/>

  <!-- Koptekstrij (blauw) -->
  <rect x="40" y="108" width="340" height="22" fill="#A855F720"/>
  <text x="52" y="123" font-family="monospace" font-size="11" font-weight="700" fill="#A855F7">tijdstip,temperatuur,luchtvochtigheid,gpio</text>

  <!-- Datarijen -->
  <rect x="40" y="130" width="340" height="20" fill="#09090F"/>
  <text x="52" y="144" font-family="monospace" font-size="11" fill="#E8E9F3">2026-03-22 09:01:00,21.4,62,4</text>

  <rect x="40" y="150" width="340" height="20" fill="#1A1C28"/>
  <text x="52" y="164" font-family="monospace" font-size="11" fill="#E8E9F3">2026-03-22 09:02:00,21.6,61,4</text>

  <rect x="40" y="170" width="340" height="20" fill="#09090F"/>
  <text x="52" y="184" font-family="monospace" font-size="11" fill="#E8E9F3">2026-03-22 09:03:00,21.9,60,4</text>

  <rect x="40" y="190" width="340" height="20" fill="#1A1C28"/>
  <text x="52" y="204" font-family="monospace" font-size="11" fill="#E8E9F3">2026-03-22 09:04:00,22.1,59,4</text>

  <rect x="40" y="210" width="340" height="20" fill="#09090F"/>
  <text x="52" y="224" font-family="monospace" font-size="11" fill="#E8E9F3">2026-03-22 09:05:00,22.3,58,4</text>

  <text x="220" y="250" text-anchor="middle" font-family="system-ui, sans-serif" font-size="10" fill="#6B6E8E">... meer rijen ...</text>
  <text x="220" y="268" text-anchor="middle" font-family="system-ui, sans-serif" font-size="10" fill="#3D3F62">sensor_data.csv — ruwe tekst</text>

  <!-- Labels die pijlen aanwijzen in de CSV-tekst -->
  <!-- Komma separator label -->
  <line x1="155" y1="123" x2="155" y2="72" stroke="#F97316" stroke-width="1" stroke-dasharray="3,3"/>
  <rect x="100" y="62" width="110" height="16" rx="3" fill="#1A1C28"/>
  <text x="155" y="74" text-anchor="middle" font-family="system-ui, sans-serif" font-size="9" fill="#F97316">komma = scheidingsteken</text>

  <!-- Header rij label -->
  <line x1="380" y1="119" x2="420" y2="119" stroke="#A855F7" stroke-width="1.2" stroke-dasharray="3,3"/>
  <text x="425" y="123" font-family="system-ui, sans-serif" font-size="9" fill="#A855F7">Koptekstrij (header)</text>

  <!-- Tabelweergave rechts -->
  <rect x="410" y="80" width="350" height="200" rx="8" fill="#13141D" stroke="#A855F750" stroke-width="1"/>

  <!-- Header -->
  <rect x="410" y="80" width="350" height="28" rx="8" fill="#A855F720"/>
  <rect x="410" y="96" width="350" height="12" rx="0" fill="#A855F720"/>
  <text x="430" y="99" font-family="system-ui, sans-serif" font-size="10" font-weight="700" fill="#A855F7">tijdstip</text>
  <text x="540" y="99" font-family="system-ui, sans-serif" font-size="10" font-weight="700" fill="#A855F7">temp.</text>
  <text x="600" y="99" font-family="system-ui, sans-serif" font-size="10" font-weight="700" fill="#A855F7">vochtigheid</text>
  <text x="715" y="99" font-family="system-ui, sans-serif" font-size="10" font-weight="700" fill="#A855F7">gpio</text>
  <line x1="420" y1="108" x2="750" y2="108" stroke="#A855F740" stroke-width="1"/>

  <!-- Rij 1 -->
  <rect x="410" y="108" width="350" height="23" fill="#09090F"/>
  <text x="430" y="123" font-family="monospace" font-size="10" fill="#E8E9F3">09:01:00</text>
  <text x="550" y="123" font-family="monospace" font-size="10" fill="#00C2A8">21.4</text>
  <text x="618" y="123" font-family="monospace" font-size="10" fill="#E8E9F3">62</text>
  <text x="718" y="123" font-family="monospace" font-size="10" fill="#E8E9F3">4</text>

  <!-- Rij 2 -->
  <rect x="410" y="131" width="350" height="23" fill="#1A1C28"/>
  <text x="430" y="146" font-family="monospace" font-size="10" fill="#E8E9F3">09:02:00</text>
  <text x="550" y="146" font-family="monospace" font-size="10" fill="#00C2A8">21.6</text>
  <text x="618" y="146" font-family="monospace" font-size="10" fill="#E8E9F3">61</text>
  <text x="718" y="146" font-family="monospace" font-size="10" fill="#E8E9F3">4</text>

  <!-- Rij 3 -->
  <rect x="410" y="154" width="350" height="23" fill="#09090F"/>
  <text x="430" y="169" font-family="monospace" font-size="10" fill="#E8E9F3">09:03:00</text>
  <text x="550" y="169" font-family="monospace" font-size="10" fill="#F59E0B">21.9</text>
  <text x="618" y="169" font-family="monospace" font-size="10" fill="#E8E9F3">60</text>
  <text x="718" y="169" font-family="monospace" font-size="10" fill="#E8E9F3">4</text>

  <!-- Rij 4 -->
  <rect x="410" y="177" width="350" height="23" fill="#1A1C28"/>
  <text x="430" y="192" font-family="monospace" font-size="10" fill="#E8E9F3">09:04:00</text>
  <text x="550" y="192" font-family="monospace" font-size="10" fill="#F59E0B">22.1</text>
  <text x="618" y="192" font-family="monospace" font-size="10" fill="#E8E9F3">59</text>
  <text x="718" y="192" font-family="monospace" font-size="10" fill="#E8E9F3">4</text>

  <!-- Rij 5 -->
  <rect x="410" y="200" width="350" height="23" fill="#09090F"/>
  <text x="430" y="215" font-family="monospace" font-size="10" fill="#E8E9F3">09:05:00</text>
  <text x="550" y="215" font-family="monospace" font-size="10" fill="#EF4444">22.3</text>
  <text x="618" y="215" font-family="monospace" font-size="10" fill="#E8E9F3">58</text>
  <text x="718" y="215" font-family="monospace" font-size="10" fill="#E8E9F3">4</text>

  <text x="585" y="268" text-anchor="middle" font-family="system-ui, sans-serif" font-size="10" fill="#6B6E8E">tabelweergave (bv. Excel / pandas)</text>

  <!-- Python inleescode -->
  <rect x="40" y="300" width="340" height="130" rx="8" fill="#09090F" stroke="#2A2C45" stroke-width="1"/>
  <rect x="40" y="300" width="340" height="22" rx="8" fill="#13141D"/>
  <rect x="40" y="310" width="340" height="12" rx="0" fill="#13141D"/>
  <text x="52" y="315" font-family="monospace" font-size="10" fill="#6B6E8E">Python — pandas</text>
  <text x="52" y="336" font-family="monospace" font-size="11" fill="#C084FC">import</text>
  <text x="102" y="336" font-family="monospace" font-size="11" fill="#E8E9F3">pandas</text>
  <text x="153" y="336" font-family="monospace" font-size="11" fill="#C084FC">as</text>
  <text x="171" y="336" font-family="monospace" font-size="11" fill="#E8E9F3">pd</text>
  <text x="52" y="354" font-family="monospace" font-size="11" fill="#E8E9F3">df = pd.</text>
  <text x="104" y="354" font-family="monospace" font-size="11" fill="#93C5FD">read_csv</text>
  <text x="172" y="354" font-family="monospace" font-size="11" fill="#E8E9F3">(</text>
  <text x="179" y="354" font-family="monospace" font-size="11" fill="#86EFAC">'sensor_data.csv'</text>
  <text x="337" y="354" font-family="monospace" font-size="11" fill="#E8E9F3">)</text>
  <text x="52" y="372" font-family="monospace" font-size="11" fill="#C084FC">print</text>
  <text x="91" y="372" font-family="monospace" font-size="11" fill="#E8E9F3">(df.</text>
  <text x="113" y="372" font-family="monospace" font-size="11" fill="#93C5FD">head</text>
  <text x="143" y="372" font-family="monospace" font-size="11" fill="#E8E9F3">())</text>
  <text x="52" y="392" font-family="monospace" font-size="11" fill="#6B6E8E"># Gemiddelde temperatuur</text>
  <text x="52" y="410" font-family="monospace" font-size="11" fill="#C084FC">print</text>
  <text x="91" y="410" font-family="monospace" font-size="11" fill="#E8E9F3">(df[</text>
  <text x="116" y="410" font-family="monospace" font-size="11" fill="#86EFAC">'temperatuur'</text>
  <text x="208" y="410" font-family="monospace" font-size="11" fill="#E8E9F3">].</text>
  <text x="218" y="410" font-family="monospace" font-size="11" fill="#93C5FD">mean</text>
  <text x="250" y="410" font-family="monospace" font-size="11" fill="#E8E9F3">())</text>

  <!-- Voordelen CSV -->
  <rect x="410" y="300" width="350" height="130" rx="8" fill="#A855F710" stroke="#A855F730" stroke-width="1"/>
  <text x="585" y="322" text-anchor="middle" font-family="system-ui, sans-serif" font-size="12" font-weight="700" fill="#A855F7">Waarom CSV?</text>
  <line x1="420" y1="330" x2="750" y2="330" stroke="#A855F730" stroke-width="1"/>

  <text x="428" y="348" font-family="system-ui, sans-serif" font-size="11" fill="#22C55E">+</text>
  <text x="444" y="348" font-family="system-ui, sans-serif" font-size="11" fill="#A8AACB">Leesbaar als gewone tekst</text>

  <text x="428" y="366" font-family="system-ui, sans-serif" font-size="11" fill="#22C55E">+</text>
  <text x="444" y="366" font-family="system-ui, sans-serif" font-size="11" fill="#A8AACB">Werkt in Excel, Python, R, SQL</text>

  <text x="428" y="384" font-family="system-ui, sans-serif" font-size="11" fill="#22C55E">+</text>
  <text x="444" y="384" font-family="system-ui, sans-serif" font-size="11" fill="#A8AACB">Ideaal voor sensordata (Pi)</text>

  <text x="428" y="402" font-family="system-ui, sans-serif" font-size="11" fill="#22C55E">+</text>
  <text x="444" y="402" font-family="system-ui, sans-serif" font-size="11" fill="#A8AACB">Klein bestandsformaat</text>

  <text x="428" y="420" font-family="system-ui, sans-serif" font-size="11" fill="#EF4444">–</text>
  <text x="444" y="420" font-family="system-ui, sans-serif" font-size="11" fill="#6B6E8E">Geen datatypes / geen relaties</text>
</svg>
