<svg xmlns="http://www.w3.org/2000/svg" viewBox="0 0 32 32" fill="none">
  <path fill="#2DBA4E" fill-rule="evenodd" clip-rule="evenodd" d="M16 0C7.163 0 0 7.163 0 16c0 7.072 4.584 13.072 10.942 15.195.8.147 1.092-.347 1.092-.77 0-.38-.014-1.383-.021-2.714-4.45.967-5.39-2.144-5.39-2.144-.728-1.849-1.776-2.341-1.776-2.341-1.452-.993.11-.973.11-.973 1.606.113 2.452 1.649 2.452 1.649 1.427 2.445 3.743 1.738 4.656 1.329.145-1.034.558-1.738 1.016-2.137-3.552-.404-7.288-1.776-7.288-7.907 0-1.747.624-3.175 1.646-4.295-.165-.404-.713-2.031.156-4.233 0 0 1.342-.43 4.4 1.64A15.31 15.31 0 0116 7.867c1.36.006 2.729.184 4.008.54 3.055-2.07 4.395-1.64 4.395-1.64.871 2.202.323 3.829.158 4.233 1.025 1.12 1.644 2.548 1.644 4.295 0 6.147-3.742 7.499-7.306 7.895.574.494 1.085 1.468 1.085 2.958 0 2.136-.019 3.857-.019 4.381 0 .427.288.924 1.1.768C27.42 29.068 32 23.07 32 16 32 7.163 24.837 0 16 0z"/>
</svg>
