<svg xmlns="http://www.w3.org/2000/svg" viewBox="0 0 800 500" font-family="'Segoe UI', system-ui, sans-serif">
  <rect width="800" height="500" fill="#0d1117" rx="10"/>
  <rect width="800" height="56" fill="#161b22" rx="10"/>
  <rect y="34" width="800" height="22" fill="#161b22"/>
  <rect x="20" y="14" width="28" height="28" rx="4" fill="#2DBA4E"/>
  <text x="400" y="34" font-size="13" fill="#8b949e" text-anchor="middle">github.com / lena-peeters</text>

  <!-- Avatar + naam -->
  <rect x="40" y="68" width="100" height="100" rx="50" fill="#21262d"/>
  <text x="90" y="130" font-size="36" text-anchor="middle">👩‍💻</text>
  <text x="160" y="96" font-size="20" fill="#c9d1d9" font-weight="bold">Lena Peeters</text>
  <text x="160" y="118" font-size="13" fill="#2DBA4E">lena-peeters</text>
  <text x="160" y="140" font-size="12" fill="#8b949e">📍 Munsterbilzen, België</text>
  <text x="160" y="158" font-size="12" fill="#8b949e">🎓 Data- en Applicatiebeheer — 6ADB</text>

  <!-- Pinned readme badge -->
  <rect x="40" y="182" width="700" height="1" fill="#30363d"/>
  <text x="40" y="206" font-size="13" fill="#8b949e">📌 Profiel-README</text>
  <rect x="40" y="218" width="720" height="200" fill="#161b22" rx="8"/>
  <text x="62" y="254" font-size="18" fill="#c9d1d9" font-weight="bold">👋 Hallo, ik ben Lena!</text>
  <text x="62" y="282" font-size="12" fill="#8b949e">Ik studeer Data- en Applicatiebeheer in Munsterbilzen.</text>
  <text x="62" y="304" font-size="12" fill="#8b949e">Ik leer HTML, CSS, JavaScript, Node.js en MySQL.</text>
  <text x="62" y="334" font-size="13" fill="#c9d1d9">🛠️ Skills in ontwikkeling:</text>
  <rect x="62" y="346" width="90" height="22" fill="#21262d" rx="4"/>
  <text x="107" y="361" font-size="11" fill="#79c0ff" text-anchor="middle">HTML/CSS</text>
  <rect x="162" y="346" width="90" height="22" fill="#21262d" rx="4"/>
  <text x="207" y="361" font-size="11" fill="#79c0ff" text-anchor="middle">JavaScript</text>
  <rect x="262" y="346" width="70" height="22" fill="#21262d" rx="4"/>
  <text x="297" y="361" font-size="11" fill="#79c0ff" text-anchor="middle">Node.js</text>
  <rect x="342" y="346" width="60" height="22" fill="#21262d" rx="4"/>
  <text x="372" y="361" font-size="11" fill="#79c0ff" text-anchor="middle">MySQL</text>
  <text x="62" y="400" font-size="12" fill="#8b949e">📁 Mijn repositories: cursus-6adb · gip-project</text>
</svg>
