<svg xmlns="http://www.w3.org/2000/svg" viewBox="0 0 800 500" font-family="'Segoe UI', system-ui, sans-serif">
  <rect width="800" height="500" fill="#0d1117" rx="10"/>
  <rect width="800" height="56" fill="#161b22" rx="10"/>
  <rect y="34" width="800" height="22" fill="#161b22"/>
  <rect x="20" y="14" width="28" height="28" rx="4" fill="#2DBA4E"/>
  <text x="400" y="34" font-size="13" fill="#8b949e" text-anchor="middle">github.com / lena-peeters / gip-project / pull / 1</text>

  <!-- PR header -->
  <text x="40" y="80" font-size="17" fill="#c9d1d9" font-weight="bold">GIP startpagina — HTML + CSS basis</text>
  <rect x="40" y="90" width="68" height="22" fill="#238636" rx="11"/>
  <text x="74" y="105" font-size="11" fill="#fff" text-anchor="middle">● Open</text>
  <text x="120" y="105" font-size="12" fill="#8b949e">lena-peeters wants to merge 3 commits into</text>
  <text x="120" y="121" font-size="12" fill="#58a6ff">main</text>
  <text x="156" y="121" font-size="12" fill="#8b949e"> from </text>
  <text x="192" y="121" font-size="12" fill="#58a6ff">gip/startpagina</text>

  <rect x="40" y="134" width="700" height="1" fill="#30363d"/>

  <!-- Commits tab -->
  <text x="40" y="160" font-size="12" fill="#8b949e">Commits (3)   Files changed (2)</text>
  <rect x="40" y="168" width="700" height="1" fill="#30363d"/>

  <!-- Commit rijen -->
  <rect x="40" y="178" width="720" height="46" fill="#161b22" rx="4"/>
  <text x="60" y="198" font-size="12" fill="#c9d1d9" font-family="'Courier New', monospace">init: startpagina HTML aangemaakt</text>
  <text x="60" y="214" font-size="11" fill="#8b949e">lena-peeters · 3c1a9f2</text>

  <rect x="40" y="232" width="720" height="46" fill="#0d1117" rx="4"/>
  <text x="60" y="252" font-size="12" fill="#c9d1d9" font-family="'Courier New', monospace">style: navigatie en typografie gestyled</text>
  <text x="60" y="268" font-size="11" fill="#8b949e">lena-peeters · 7f2b8d4</text>

  <rect x="40" y="286" width="720" height="46" fill="#161b22" rx="4"/>
  <text x="60" y="306" font-size="12" fill="#c9d1d9" font-family="'Courier New', monospace">feat: hero-sectie en footer toegevoegd</text>
  <text x="60" y="322" font-size="11" fill="#8b949e">lena-peeters · a0e4c1b</text>

  <!-- Review opmerking -->
  <rect x="40" y="348" width="720" height="80" fill="#1c2128" rx="6"/>
  <rect x="40" y="348" width="720" height="30" fill="#21262d" rx="6"/>
  <rect x="40" y="366" width="720" height="12" fill="#21262d"/>
  <text x="60" y="368" font-size="12" fill="#8b949e">Leerkracht — code review</text>
  <text x="60" y="396" font-size="12" fill="#c9d1d9">"Goede structuur! Voeg nog een meta description toe aan je HTML head."</text>
  <text x="60" y="416" font-size="11" fill="#58a6ff" text-decoration="underline">Antwoord schrijven...</text>

  <!-- Merge button -->
  <rect x="40" y="446" width="200" height="36" fill="#238636" rx="6"/>
  <text x="140" y="469" font-size="13" fill="#fff" text-anchor="middle" font-weight="bold">Merge pull request</text>
</svg>
