<svg xmlns="http://www.w3.org/2000/svg" viewBox="0 0 800 500" font-family="'Segoe UI', system-ui, sans-serif">
  <rect width="800" height="500" fill="#0d1117" rx="10"/>
  <rect width="800" height="56" fill="#161b22" rx="10"/>
  <rect y="34" width="800" height="22" fill="#161b22"/>
  <rect x="20" y="14" width="28" height="28" rx="4" fill="#2DBA4E"/>
  <text x="400" y="34" font-size="13" fill="#8b949e" text-anchor="middle">github.com / lena-peeters / gip-project / releases</text>

  <text x="40" y="82" font-size="17" fill="#c9d1d9" font-weight="bold">Releases</text>
  <rect x="40" y="92" width="700" height="1" fill="#30363d"/>

  <!-- Release v1.0 -->
  <rect x="40" y="108" width="720" height="180" fill="#161b22" rx="8"/>
  <rect x="40" y="108" width="6" height="180" fill="#2DBA4E" rx="3"/>

  <rect x="60" y="118" width="80" height="24" fill="#0d4429" rx="12"/>
  <text x="100" y="134" font-size="11" fill="#3fb950" text-anchor="middle" font-weight="bold">● Latest</text>
  <text x="160" y="134" font-size="14" fill="#58a6ff" font-weight="bold">v1.0</text>
  <text x="210" y="134" font-size="12" fill="#8b949e">· GIP frontend v1.0</text>

  <text x="60" y="162" font-size="12" fill="#8b949e">lena-peeters released this · 1 hour ago</text>
  <rect x="60" y="174" width="700" height="1" fill="#21262d"/>

  <text x="60" y="200" font-size="13" fill="#c9d1d9" font-weight="bold">Wat zit er in v1.0?</text>
  <text x="60" y="222" font-size="12" fill="#8b949e">✔  Login- en registratiepagina</text>
  <text x="60" y="242" font-size="12" fill="#8b949e">✔  Activiteitenlijst met CSS-opmaak</text>
  <text x="60" y="262" font-size="12" fill="#8b949e">✔  Responsive navigatiebalk</text>

  <!-- Terminal commando's -->
  <rect x="40" y="306" width="720" height="120" fill="#0d1117" rx="6"/>
  <text x="60" y="332" font-size="12" fill="#2DBA4E" font-family="'Courier New', monospace">$ git tag -a v1.0 -m "GIP frontend v1.0"</text>
  <text x="60" y="356" font-size="12" fill="#2DBA4E" font-family="'Courier New', monospace">$ git push origin v1.0</text>
  <text x="60" y="378" font-size="12" fill="#c9d1d9" font-family="'Courier New', monospace">Total 0 (delta 0), reused 0 (delta 0)</text>
  <text x="60" y="398" font-size="12" fill="#c9d1d9" font-family="'Courier New', monospace">To https://github.com/lena-peeters/gip-project.git</text>
  <text x="60" y="418" font-size="12" fill="#2DBA4E" font-family="'Courier New', monospace"> * [new tag]         v1.0 → v1.0  ✔</text>

  <!-- Release notes badge -->
  <rect x="40" y="442" width="200" height="32" fill="#21262d" rx="6"/>
  <text x="140" y="462" font-size="12" fill="#8b949e" text-anchor="middle">📄 Release notes bijgevoegd</text>
</svg>
